<?xml version="1.0" encoding="UTF-8"?>
<svg version="1.1" xmlns="http://www.w3.org/2000/svg" width="969" height="627">
<path d="M0 0 C319.77 0 639.54 0 969 0 C969 206.91 969 413.82 969 627 C649.23 627 329.46 627 0 627 C0 420.09 0 213.18 0 0 Z " fill="#333333" transform="translate(0,0)"/>
<path d="M0 0 C319.77 0 639.54 0 969 0 C969 19.47 969 38.94 969 59 C959.3767324 67.24851508 959.3767324 67.24851508 950.33525723 67.25299966 C949.67432126 67.25605276 949.01338528 67.25910585 948.33242094 67.26225147 C946.10962738 67.2700677 943.88710449 67.26361298 941.6643095 67.25726891 C940.05097735 67.25996134 938.43764646 67.26352862 936.82431796 67.26789337 C932.36807566 67.27738145 927.91191478 67.27434103 923.45566839 67.26933783 C918.6162358 67.26608038 913.77682095 67.27434607 908.93739396 67.28115618 C900.44800683 67.29148106 891.95864251 67.29429567 883.46924973 67.29224396 C870.84532844 67.28920042 858.2214325 67.29750353 845.59751614 67.30799321 C821.7421196 67.32736101 797.88673164 67.33296246 774.03132816 67.33410732 C755.61331979 67.33502547 737.19531479 67.33913725 718.77730751 67.34550858 C713.48080852 67.34730359 708.18430953 67.34908322 702.88781053 67.35085833 C701.57118622 67.35130043 700.25456191 67.35174252 698.89803989 67.35219802 C661.85099099 67.36451081 624.80394324 67.37241047 587.7568922 67.37151146 C586.3452879 67.3714799 584.9336836 67.37144843 583.5220793 67.37141704 C577.14867102 67.37127027 570.77526274 67.37109393 564.40185446 67.37090927 C561.55973556 67.37082703 558.71761666 67.37074673 555.87549777 67.37066665 C554.45296537 67.37062586 553.03043297 67.37058382 551.60790058 67.37054053 C506.62164359 67.36917991 461.63541808 67.3838162 416.64916992 67.41162109 C405.3144262 67.41862299 393.97968244 67.42556185 382.64493847 67.43214989 C381.59808585 67.43275851 381.59808585 67.43275851 380.53008469 67.43337943 C359.02428756 67.44580703 337.51849302 67.45334008 316.01269245 67.45586586 C315.33761496 67.45594576 314.66253747 67.45602566 313.96700309 67.45610799 C298.48349066 67.45789099 282.99997847 67.45827406 267.51646596 67.45769465 C262.2190239 67.45754538 256.92158185 67.45744797 251.62413979 67.45738602 C250.31971762 67.45736271 249.01529545 67.4573394 247.67134534 67.45731538 C226.65059136 67.45725376 205.62986389 67.4700429 184.6091178 67.48725055 C163.49478727 67.50417771 142.38049567 67.50620377 121.26616212 67.4930319 C108.71246835 67.48562333 96.15889257 67.48935749 83.60521122 67.50891658 C75.22723686 67.52087011 66.84934843 67.51837731 58.47137809 67.50397559 C53.69284586 67.49617333 48.91454282 67.49477301 44.13602629 67.51089029 C39.79070647 67.52541864 35.44580729 67.5216105 31.10050638 67.50304256 C29.53654959 67.49959361 27.97256009 67.50287735 26.40863656 67.51364497 C10.39190625 67.61655366 10.39190625 67.61655366 5 63 C-8.48614617 46.8166246 0 21.06603375 0 0 Z " fill="#1E1E1E" transform="translate(0,0)"/>
<path d="M0 0 C0.73664104 -0.00265183 1.47328207 -0.00530365 2.23224556 -0.00803584 C4.72613331 -0.01575819 7.21997207 -0.01628913 9.713871 -0.01688576 C11.50973489 -0.02089844 13.30559787 -0.02533634 15.10145974 -0.03016531 C20.05644289 -0.0421582 25.01141629 -0.04778553 29.96641111 -0.05234647 C35.30260708 -0.05829225 40.63879132 -0.06990459 45.9749794 -0.08063698 C58.87157546 -0.10518377 71.76817541 -0.11979108 84.66478765 -0.13269705 C88.3052478 -0.13640719 91.94570757 -0.14038056 95.58616734 -0.14444971 C118.17640873 -0.16968344 140.7666507 -0.19174399 163.35690308 -0.20417786 C168.59196093 -0.20710772 173.82701876 -0.21006936 179.06207657 -0.21308327 C180.36327974 -0.21382932 181.66448292 -0.21457537 183.00511649 -0.21534403 C204.09478644 -0.22800393 225.18437219 -0.26123424 246.27400276 -0.3028851 C267.90931305 -0.34526462 289.54458018 -0.36886825 311.17993188 -0.37409842 C323.33428485 -0.37751697 335.48850624 -0.38932441 347.64281845 -0.42220116 C357.99176612 -0.45014806 368.34055525 -0.46122457 378.68953773 -0.4500057 C383.97231677 -0.44480539 389.25476351 -0.44779472 394.53749466 -0.47247124 C399.3712213 -0.49486249 404.20437501 -0.49430301 409.038111 -0.47526737 C410.78916362 -0.47245309 412.54025425 -0.47814456 414.29124543 -0.4930803 C416.66807105 -0.51211885 419.04283937 -0.50044582 421.4196167 -0.48101807 C422.10277753 -0.49386729 422.78593837 -0.50671651 423.48980105 -0.5199551 C428.96974894 -0.42123228 431.2327875 1.41516088 434.96149063 5.13701439 C436.65386748 8.52176809 436.16805894 12.36509049 436.19977188 16.09013939 C436.20784363 16.98311729 436.21591537 17.8760952 436.22423172 18.79613304 C436.23807633 20.68920002 436.2487968 22.58229201 436.25665665 24.4753933 C436.27384043 27.36178449 436.31771905 30.24702161 436.36188126 33.13310814 C436.37201083 34.97294347 436.38052611 36.81278854 436.38727188 38.65263939 C436.40477997 39.51222252 436.42228806 40.37180565 436.44032669 41.25743675 C436.42075266 46.70326161 435.62734457 49.84120182 431.96149063 54.13701439 C428.3993594 56.51176854 425.90636436 56.41875724 421.79714012 56.39428329 C420.68999841 56.39954241 420.68999841 56.39954241 419.56049019 56.40490776 C417.06762863 56.41427026 414.5749982 56.40928605 412.08212662 56.40443993 C410.28468601 56.40817375 408.48724702 56.41277419 406.68981063 56.41817057 C401.73513708 56.43044913 396.78053079 56.43013441 391.82584548 56.42778182 C386.48831873 56.42737488 381.1508139 56.43840104 375.81329727 56.44789696 C365.35043445 56.46453439 354.88759417 56.47000774 344.42471923 56.47112171 C335.92320839 56.47207087 327.42170501 56.47617449 318.92019653 56.48252296 C294.83608313 56.50014265 270.75198757 56.50936067 246.66786768 56.50786202 C244.71888731 56.50774215 244.71888731 56.50774215 242.7305336 56.50761986 C240.77918362 56.50749722 240.77918362 56.50749722 238.78841244 56.5073721 C217.69814101 56.50655893 196.60794097 56.52570243 175.5176902 56.55389659 C153.88121854 56.58259357 132.24478173 56.59643865 110.60829055 56.59470904 C98.45345223 56.59404405 86.29868872 56.59958407 74.14386749 56.62106514 C63.7960214 56.63923504 53.44828405 56.64365885 43.10042895 56.63004629 C37.81781744 56.62349548 32.53541479 56.62347535 27.25282288 56.64075279 C22.42048139 56.6563955 17.58851591 56.65371058 12.75618409 56.63618453 C11.00451238 56.63309512 9.25281322 56.63681938 7.50117387 56.64790468 C5.12616357 56.66194398 2.75248716 56.65150541 0.37752342 56.63479233 C-0.30797858 56.64472869 -0.99348058 56.65466505 -1.69975537 56.66490251 C-6.39365064 56.59471526 -8.72308559 55.41497959 -12.03850937 52.13701439 C-13.82324415 49.38772144 -14.29559444 47.26508855 -14.34490585 44.0144558 C-14.36089325 43.21327324 -14.37688065 42.41209068 -14.39335251 41.58662987 C-14.39871521 40.72927238 -14.40407791 39.8719149 -14.40960312 38.98857689 C-14.41863159 38.09842888 -14.42766006 37.20828087 -14.43696213 36.29115868 C-14.45145304 34.41005879 -14.46034849 32.52890864 -14.46404648 30.64775658 C-14.4759401 27.77872338 -14.52513293 24.9118437 -14.57561874 22.04326439 C-14.58508394 20.21254568 -14.59231851 18.38181381 -14.59710312 16.55107689 C-14.61663544 15.69776787 -14.63616776 14.84445885 -14.65629196 13.96529198 C-14.62431653 9.71703633 -14.35195254 6.97849073 -11.62859726 3.61113548 C-7.73201654 -0.11098244 -5.15092613 -0.00890892 0 0 Z " fill="#D8D8D8" transform="translate(274.0385093688965,305.8629856109619)"/>
<path d="M0 0 C0.84770877 -0.00367669 1.69541754 -0.00735338 2.56881446 -0.01114148 C5.41996177 -0.02218745 8.27107264 -0.02602369 11.12223816 -0.02983093 C13.16218176 -0.03609481 15.20212422 -0.04274155 17.24206543 -0.04974365 C22.79169646 -0.06715847 28.34131888 -0.07770641 33.89097047 -0.08594918 C37.35664345 -0.09109758 40.82231376 -0.09717334 44.28798485 -0.10346031 C55.12688503 -0.12251245 65.96577838 -0.13674439 76.80469209 -0.14507228 C89.324864 -0.15485033 101.84485939 -0.18118466 114.36496907 -0.22157317 C124.03723166 -0.25170654 133.70944356 -0.26653846 143.38175219 -0.26985329 C149.16114452 -0.27220664 154.94034826 -0.28120442 160.71969032 -0.30631447 C166.1558393 -0.32955196 171.59167492 -0.33384576 177.02786064 -0.32355309 C179.02331203 -0.32305659 181.01877862 -0.32941043 183.01418304 -0.34310913 C185.73826698 -0.36076439 188.46121858 -0.3537534 191.18530273 -0.34057617 C192.36999349 -0.35703004 192.36999349 -0.35703004 193.57861739 -0.37381631 C198.74784964 -0.31343779 201.68528216 0.73126719 205.78312683 4.14717102 C209.01558928 8.99586469 208.15196516 14.32262929 208.15812683 20.02217102 C208.18261902 21.20681946 208.20711121 22.3914679 208.23234558 23.61201477 C208.23621277 24.75541321 208.24007996 25.89881165 208.24406433 27.07685852 C208.2522821 28.12083801 208.26049988 29.1648175 208.26896667 30.24043274 C207.65528239 33.91205338 206.38171695 35.52001869 203.78312683 38.14717102 C199.99544022 40.7779678 195.87759863 40.43189246 191.44599915 40.41459656 C190.17315435 40.42139323 190.17315435 40.42139323 188.87459552 40.4283272 C186.02650529 40.44100418 183.17860547 40.43934871 180.33049011 40.43769836 C178.29039768 40.44368154 176.25030751 40.45048659 174.21022034 40.45805359 C168.66476457 40.47574187 163.1193705 40.48041015 157.57388926 40.48168516 C152.94656625 40.483583 148.31925765 40.49093917 143.69194019 40.49802935 C132.7758765 40.51432152 121.85984581 40.51919753 110.94377136 40.51777649 C99.67841292 40.51657471 88.41324596 40.53768206 77.14793599 40.56926382 C67.47989185 40.59540316 57.81191034 40.60614477 48.14383113 40.60486567 C42.36781835 40.60435537 36.59197571 40.61007649 30.81599808 40.63122177 C25.38392477 40.65056472 19.95218459 40.65075553 14.52009964 40.63618851 C12.52626561 40.63409444 10.53241094 40.63883674 8.53861237 40.65090942 C5.81675571 40.66632329 3.09605322 40.65707944 0.3742218 40.64164734 C-0.41488992 40.65193447 -1.20400163 40.66222159 -2.01702583 40.67282045 C-7.18310707 40.6080877 -10.12123354 39.5600164 -14.21687317 36.14717102 C-17.44227981 31.30906106 -16.62659381 26.02326736 -16.65437317 20.33467102 C-16.68724426 19.15840149 -16.72011536 17.98213196 -16.75398254 16.7702179 C-16.81425971 7.0765533 -16.81425971 7.0765533 -13.87702942 3.38545227 C-9.48306954 -0.31166816 -5.47631606 -0.0012676 0 0 Z " fill="#D3D3D3" transform="translate(389.2168731689453,399.8528289794922)"/>
<path d="M0 0 C0.81970779 -0.0049649 1.63941559 -0.00992981 2.48396301 -0.01504517 C5.20383537 -0.02968495 7.92364935 -0.03647262 10.64355469 -0.04199219 C12.53204348 -0.04774317 14.42053225 -0.05350091 16.309021 -0.05926514 C20.27356234 -0.069781 24.23808338 -0.07561949 28.20263672 -0.07910156 C33.27800704 -0.08458044 38.35310828 -0.10859303 43.42839432 -0.13707352 C47.33179502 -0.15571808 51.23513123 -0.16090652 55.13857269 -0.16243744 C57.00923886 -0.16546156 58.87990397 -0.17348199 60.75052643 -0.18662262 C63.37165118 -0.20371734 65.99212305 -0.20179431 68.61328125 -0.1953125 C69.38338028 -0.20452728 70.15347931 -0.21374207 70.94691467 -0.22323608 C75.73521467 -0.18622772 78.99192108 0.64100189 83.06542969 3.16113281 C87.34946921 7.71631408 86.50642917 13.78717846 86.44042969 19.66113281 C86.45203125 20.69367187 86.46363281 21.72621094 86.47558594 22.79003906 C86.45092523 29.1607228 86.10323188 33.08835163 81.48582458 37.75892639 C77.97070998 39.79533635 74.56445919 39.58740572 70.61254883 39.56518555 C69.76168198 39.5720488 68.91081512 39.57891205 68.03416443 39.58598328 C65.22280162 39.60427772 62.41199547 39.60040998 59.60058594 39.59472656 C57.64529743 39.59928717 55.69001052 39.60459239 53.73472595 39.61061096 C49.63664234 39.61954732 45.53875354 39.61711304 41.44067383 39.60717773 C36.19025009 39.59568884 30.94049897 39.61589573 25.69016361 39.64509487 C21.65209179 39.66344569 17.61418147 39.66316661 13.57607841 39.65745735 C11.64039606 39.65730399 9.70470285 39.66336038 7.76906013 39.67574883 C5.0615133 39.69063548 2.35521304 39.67999907 -0.35229492 39.6628418 C-1.55020157 39.67734375 -1.55020157 39.67734375 -2.77230835 39.69213867 C-6.5361572 39.64222324 -8.70815781 39.30627022 -11.90846252 37.254776 C-16.43006718 32.58245459 -15.23644209 26.5804958 -15.30957031 20.41113281 C-15.34695313 19.23035156 -15.38433594 18.04957031 -15.42285156 16.83300781 C-15.52182285 7.06784075 -15.52182285 7.06784075 -12.53613281 3.39550781 C-8.36433501 -0.18747769 -5.29748518 0.0076097 0 0 Z " fill="#666666" transform="translate(850.9345703125,12.8388671875)"/>
<path d="M0 0 C1.23021881 -0.01029488 1.23021881 -0.01029488 2.48529053 -0.02079773 C5.18902025 -0.03905817 7.89216927 -0.03522933 10.59594727 -0.02954102 C12.48015023 -0.03410324 14.36435153 -0.03940893 16.24855042 -0.04542542 C20.19522873 -0.05435507 24.14170468 -0.0519351 28.08837891 -0.04199219 C33.1402678 -0.03050369 38.1914576 -0.05071288 43.24325466 -0.07990932 C47.13381877 -0.09827598 51.0242155 -0.09797792 54.91481209 -0.0922718 C56.77710005 -0.09211864 58.63939939 -0.09815883 60.50164604 -0.11056328 C63.10831128 -0.12548011 65.71368697 -0.11479165 68.3203125 -0.09765625 C69.08569839 -0.10732422 69.85108429 -0.11699219 70.6396637 -0.12695312 C75.80973361 -0.05596544 78.75855716 1.11450024 82.72485352 4.40405273 C85.82375235 9.05240099 85.05341277 13.81248263 85.03735352 19.27905273 C85.0534668 20.36831055 85.06958008 21.45756836 85.08618164 22.57983398 C85.08682617 23.63299805 85.0874707 24.68616211 85.08813477 25.77124023 C85.09111572 26.73143066 85.09409668 27.69162109 85.09716797 28.6809082 C84.55150274 32.67195739 82.93343694 35.16710658 80.14421082 38.02178955 C76.63399791 40.02729658 73.22504261 39.85467083 69.2878418 39.85571289 C68.01395096 39.87323608 68.01395096 39.87323608 66.71432495 39.89111328 C63.90782377 39.92469811 61.10185044 39.93543569 58.29516602 39.94311523 C56.34227308 39.9552957 54.38938203 39.9677817 52.43649292 39.9805603 C48.34262907 40.00303738 44.24895139 40.01259056 40.1550293 40.01489258 C34.91326928 40.02017641 29.67306097 40.07151165 24.43171883 40.13440895 C20.39787724 40.17530375 16.36440978 40.18453499 12.33037949 40.185009 C10.39825748 40.19039082 8.46613164 40.20724539 6.53421402 40.23585892 C3.82855533 40.27259136 1.12642295 40.26487121 -1.5793457 40.24633789 C-2.77185944 40.27701859 -2.77185944 40.27701859 -3.98846436 40.30831909 C-7.36860601 40.24481171 -9.45311493 40.07784767 -12.1199522 37.89192009 C-15.36015104 34.24996873 -17.03279214 31.68130065 -16.96655273 26.64624023 C-16.96075195 25.60854492 -16.95495117 24.57084961 -16.94897461 23.50170898 C-16.91223633 22.43823242 -16.87549805 21.37475586 -16.83764648 20.27905273 C-16.83571289 19.2078418 -16.8337793 18.13663086 -16.83178711 17.03295898 C-16.74011003 11.57987073 -16.67567713 7.8799808 -13.27514648 3.40405273 C-9.03967044 0.1249536 -5.1664914 -0.03030677 0 0 Z " fill="#666666" transform="translate(729.275146484375,12.595947265625)"/>
<path d="M0 0 C1.69577682 -0.0149778 1.69577682 -0.0149778 3.42581177 -0.03025818 C5.81459905 -0.04542923 8.20344975 -0.05248429 10.59228516 -0.05200195 C14.23837518 -0.0585588 17.88173587 -0.11304389 21.52734375 -0.16992188 C23.85155321 -0.17872532 26.17577558 -0.18467861 28.5 -0.1875 C29.58562225 -0.20905655 30.67124451 -0.2306131 31.7897644 -0.25282288 C38.07101854 -0.19622916 41.6483689 0.52632677 46.17166138 5.020401 C49.6004283 9.22020203 48.64788538 14.5875118 48.6953125 19.75390625 C48.73881836 21.31044922 48.73881836 21.31044922 48.78320312 22.8984375 C48.8331297 28.91266959 48.68760876 32.89843427 44.3828125 37.50390625 C39.54341744 41.55559183 34.16217496 40.95427389 28.16796875 40.9375 C27.07947128 40.94274185 25.99097382 40.9479837 24.86949158 40.9533844 C22.57063651 40.95979943 20.2717486 40.95847436 17.97290039 40.94995117 C14.46115485 40.94144463 10.95103792 40.97020637 7.43945312 41.00195312 C5.20312549 41.00356537 2.96679497 41.00298716 0.73046875 41 C-0.84008522 41.01685097 -0.84008522 41.01685097 -2.44236755 41.03404236 C-8.33242563 40.97791501 -12.03996359 40.60225992 -16.6171875 36.50390625 C-19.60096993 33.42601931 -20.00057147 31.27734722 -20.015625 27.0390625 C-20.01949219 25.99169922 -20.02335938 24.94433594 -20.02734375 23.86523438 C-20.01574219 22.77662109 -20.00414062 21.68800781 -19.9921875 20.56640625 C-20.00378906 19.48166016 -20.01539063 18.39691406 -20.02734375 17.27929688 C-20.02347656 16.23064453 -20.01960937 15.18199219 -20.015625 14.1015625 C-20.01224121 13.14773682 -20.00885742 12.19391113 -20.00537109 11.21118164 C-19.40290207 7.00943382 -17.77267219 4.55310475 -14.65576172 1.72290039 C-9.86022107 -0.20094136 -5.12108741 0.01568969 0 0 Z " fill="#FEFEFE" transform="translate(649.6171875,313.49609375)"/>
<path d="M0 0 C4.62 0 9.24 0 14 0 C14 0.99 14 1.98 14 3 C14.99 3 15.98 3 17 3 C17 10.92 17 18.84 17 27 C16.01 27 15.02 27 14 27 C14 27.99 14 28.98 14 30 C9.38 30 4.76 30 0 30 C0 29.01 0 28.02 0 27 C-0.99 27 -1.98 27 -3 27 C-3 19.41 -3 11.82 -3 4 C-2.01 4 -1.02 4 0 4 C0 2.68 0 1.36 0 0 Z " fill="#02E6EE" transform="translate(113,18)"/>
<path d="M0 0 C4.62 0 9.24 0 14 0 C14 0.66 14 1.32 14 2 C15.32 2 16.64 2 18 2 C18 9.92 18 17.84 18 26 C16.68 26 15.36 26 14 26 C14 26.66 14 27.32 14 28 C9.38 28 4.76 28 0 28 C0 27.34 0 26.68 0 26 C-0.99 26 -1.98 26 -3 26 C-3 18.08 -3 10.16 -3 2 C-2.01 2 -1.02 2 0 2 C0 1.34 0 0.68 0 0 Z " fill="#01E9F2" transform="translate(63,19)"/>
<path d="M0 0 C1.98 0 3.96 0 6 0 C6 2.97 6 5.94 6 9 C6.99 9 7.98 9 9 9 C9 8.01 9 7.02 9 6 C11.97 6 14.94 6 18 6 C18 6.99 18 7.98 18 9 C18.99 9 19.98 9 21 9 C21 14.94 21 20.88 21 27 C20.01 27 19.02 27 18 27 C18 27.66 18 28.32 18 29 C12.06 29 6.12 29 0 29 C0 19.43 0 9.86 0 0 Z " fill="#F3F3F3" transform="translate(367,245)"/>
<path d="M0 0 C4.95 0 9.9 0 15 0 C15 0.99 15 1.98 15 3 C15.99 3 16.98 3 18 3 C18 4.98 18 6.96 18 9 C16.02 9 14.04 9 12 9 C12 8.01 12 7.02 12 6 C10.02 6 8.04 6 6 6 C6 6.66 6 7.32 6 8 C5.01 8 4.02 8 3 8 C3 11.96 3 15.92 3 20 C3.99 20 4.98 20 6 20 C6 20.99 6 21.98 6 23 C7.98 23 9.96 23 12 23 C12 21.02 12 19.04 12 17 C10.02 17 8.04 17 6 17 C6 15.02 6 13.04 6 11 C9.96 11 13.92 11 18 11 C18 15.95 18 20.9 18 26 C17.01 26 16.02 26 15 26 C15 26.99 15 27.98 15 29 C10.05 29 5.1 29 0 29 C0 28.01 0 27.02 0 26 C-0.99 26 -1.98 26 -3 26 C-3 18.41 -3 10.82 -3 3 C-2.01 3 -1.02 3 0 3 C0 2.01 0 1.02 0 0 Z " fill="#F0F0F0" transform="translate(584,206)"/>
<path d="M0 0 C4.95 0 9.9 0 15 0 C15 0.66 15 1.32 15 2 C15.99 2 16.98 2 18 2 C18 7.94 18 13.88 18 20 C17.01 20 16.02 20 15 20 C15 20.99 15 21.98 15 23 C10.05 23 5.1 23 0 23 C0 22.01 0 21.02 0 20 C-0.99 20 -1.98 20 -3 20 C-3 14.06 -3 8.12 -3 2 C-2.01 2 -1.02 2 0 2 C0 1.34 0 0.68 0 0 Z " fill="#F1F1F1" transform="translate(609,212)"/>
<path d="M0 0 C4.95 0 9.9 0 15 0 C15 0.66 15 1.32 15 2 C15.99 2 16.98 2 18 2 C18 7.94 18 13.88 18 20 C17.01 20 16.02 20 15 20 C15 20.99 15 21.98 15 23 C10.05 23 5.1 23 0 23 C0 22.01 0 21.02 0 20 C-0.99 20 -1.98 20 -3 20 C-3 14.06 -3 8.12 -3 2 C-2.01 2 -1.02 2 0 2 C0 1.34 0 0.68 0 0 Z " fill="#F1F1F1" transform="translate(320,212)"/>
<path d="M0 0 C4.62 0 9.24 0 14 0 C14 0.99 14 1.98 14 3 C14.99 3 15.98 3 17 3 C17 8.61 17 14.22 17 20 C16.01 20 15.02 20 14 20 C14 20.99 14 21.98 14 23 C9.38 23 4.76 23 0 23 C0 22.01 0 21.02 0 20 C-0.99 20 -1.98 20 -3 20 C-3 14.39 -3 8.78 -3 3 C-2.01 3 -1.02 3 0 3 C0 2.01 0 1.02 0 0 Z " fill="#F5F5F5" transform="translate(653,212)"/>
<path d="M0 0 C1.98 0 3.96 0 6 0 C6 0.99 6 1.98 6 3 C6.99 3 7.98 3 9 3 C9 2.01 9 1.02 9 0 C10.98 0 12.96 0 15 0 C15 0.99 15 1.98 15 3 C16.98 3 18.96 3 21 3 C21 2.01 21 1.02 21 0 C22.65 0 24.3 0 26 0 C26 0.99 26 1.98 26 3 C26.99 3 27.98 3 29 3 C29 9.6 29 16.2 29 23 C27.35 23 25.7 23 24 23 C24 17.06 24 11.12 24 5 C22.02 5 20.04 5 18 5 C18 10.94 18 16.88 18 23 C16.02 23 14.04 23 12 23 C12 17.06 12 11.12 12 5 C10.02 5 8.04 5 6 5 C6 10.94 6 16.88 6 23 C4.02 23 2.04 23 0 23 C0 15.41 0 7.82 0 0 Z " fill="#F7F7F7" transform="translate(466,212)"/>
<path d="M0 0 C4.62 0 9.24 0 14 0 C14 0.66 14 1.32 14 2 C14.99 2 15.98 2 17 2 C17 3.98 17 5.96 17 8 C15.35 8 13.7 8 12 8 C12 7.01 12 6.02 12 5 C10.02 5 8.04 5 6 5 C6 5.99 6 6.98 6 8 C5.01 8 4.02 8 3 8 C3 11.96 3 15.92 3 20 C3.99 20 4.98 20 6 20 C6 20.99 6 21.98 6 23 C7.98 23 9.96 23 12 23 C12 21.02 12 19.04 12 17 C10.02 17 8.04 17 6 17 C6 15.02 6 13.04 6 11 C9.63 11 13.26 11 17 11 C17.08097324 13.27024968 17.13917704 15.54132075 17.1875 17.8125 C17.23970703 19.70935547 17.23970703 19.70935547 17.29296875 21.64453125 C17 25 17 25 15.9375 26.9375 C12.91544145 28.59475792 10.21823004 28.28123569 6.8125 28.1875 C4.90404297 28.14689453 4.90404297 28.14689453 2.95703125 28.10546875 C1.49330078 28.05326172 1.49330078 28.05326172 0 28 C0 27.34 0 26.68 0 26 C-0.99 26 -1.98 26 -3 26 C-3 18.08 -3 10.16 -3 2 C-2.01 2 -1.02 2 0 2 C0 1.34 0 0.68 0 0 Z " fill="#00EFF8" transform="translate(88,19)"/>
<path d="M0 0 C1.98 0 3.96 0 6 0 C6 6.6 6 13.2 6 20 C6.99 20 7.98 20 9 20 C9 20.99 9 21.98 9 23 C9.99 23 10.98 23 12 23 C12 22.01 12 21.02 12 20 C12.66 20 13.32 20 14 20 C14 13.4 14 6.8 14 0 C15.98 0 17.96 0 20 0 C20 8.58 20 17.16 20 26 C19.01 26 18.02 26 17 26 C17 26.99 17 27.98 17 29 C12.38 29 7.76 29 3 29 C3 28.01 3 27.02 3 26 C2.01 26 1.02 26 0 26 C0 17.42 0 8.84 0 0 Z " fill="#F5F5F5" transform="translate(402,206)"/>
<path d="M0 0 C4.62 0 9.24 0 14 0 C14 0.99 14 1.98 14 3 C14.99 3 15.98 3 17 3 C17 9.6 17 16.2 17 23 C15.02 23 13.04 23 11 23 C11 22.01 11 21.02 11 20 C10.01 20 9.02 20 8 20 C8 20.99 8 21.98 8 23 C5.36 23 2.72 23 0 23 C0 22.01 0 21.02 0 20 C-0.99 20 -1.98 20 -3 20 C-3 17.03 -3 14.06 -3 11 C-2.01 11 -1.02 11 0 11 C0 10.01 0 9.02 0 8 C3.63 8 7.26 8 11 8 C11 7.34 11 6.68 11 6 C6.38 6 1.76 6 -3 6 C-3 5.01 -3 4.02 -3 3 C-2.01 3 -1.02 3 0 3 C0 2.01 0 1.02 0 0 Z " fill="#F4F4F4" transform="translate(503,212)"/>
<path d="M0 0 C4.62 0 9.24 0 14 0 C14 0.99 14 1.98 14 3 C14.99 3 15.98 3 17 3 C17 6.63 17 10.26 17 14 C12.05 14 7.1 14 2 14 C2 14.99 2 15.98 2 17 C6.95 17 11.9 17 17 17 C17 17.99 17 18.98 17 20 C16.01 20 15.02 20 14 20 C14 20.99 14 21.98 14 23 C9.05 23 4.1 23 -1 23 C-1 22.01 -1 21.02 -1 20 C-1.66 20 -2.32 20 -3 20 C-3 14.39 -3 8.78 -3 3 C-2.01 3 -1.02 3 0 3 C0 2.01 0 1.02 0 0 Z " fill="#FAFAFA" transform="translate(547,212)"/>
<path d="M0 0 C4.62 0 9.24 0 14 0 C14 0.99 14 1.98 14 3 C14.99 3 15.98 3 17 3 C17 9.6 17 16.2 17 23 C15.35 23 13.7 23 12 23 C12 22.01 12 21.02 12 20 C10.68 20 9.36 20 8 20 C8 20.99 8 21.98 8 23 C5.36 23 2.72 23 0 23 C0 22.01 0 21.02 0 20 C-0.99 20 -1.98 20 -3 20 C-3 17.36 -3 14.72 -3 12 C-2.01 12 -1.02 12 0 12 C0 11.01 0 10.02 0 9 C3.63 9 7.26 9 11 9 C11 8.01 11 7.02 11 6 C6.38 6 1.76 6 -3 6 C-3 5.01 -3 4.02 -3 3 C-2.01 3 -1.02 3 0 3 C0 2.01 0 1.02 0 0 Z " fill="#EEEEEE" transform="translate(417,251)"/>
<path d="M0 0 C1.65 0 3.3 0 5 0 C5 6.6 5 13.2 5 20 C5.99 20 6.98 20 8 20 C8 21.32 8 22.64 8 24 C8.99 24 9.98 24 11 24 C11 22.68 11 21.36 11 20 C11.99 20 12.98 20 14 20 C14 13.4 14 6.8 14 0 C15.98 0 17.96 0 20 0 C20 8.58 20 17.16 20 26 C19.01 26 18.02 26 17 26 C17 26.99 17 27.98 17 29 C12.38 29 7.76 29 3 29 C3 28.01 3 27.02 3 26 C2.01 26 1.02 26 0 26 C0 17.42 0 8.84 0 0 Z " fill="#F8F8F8" transform="translate(290,245)"/>
<path d="M0 0 C1.98 0 3.96 0 6 0 C6 3.63 6 7.26 6 11 C6.99 11.33 7.98 11.66 9 12 C9 12.66 9 13.32 9 14 C10.65 14 12.3 14 14 14 C14 13.34 14 12.68 14 12 C14.99 12 15.98 12 17 12 C17 8.04 17 4.08 17 0 C18.98 0 20.96 0 23 0 C23 4.62 23 9.24 23 14 C22.01 14 21.02 14 20 14 C20 14.99 20 15.98 20 17 C19.01 17 18.02 17 17 17 C17 17.99 17 18.98 17 20 C16.01 20 15.02 20 14 20 C14 22.97 14 25.94 14 29 C12.02 29 10.04 29 8 29 C8 26.36 8 23.72 8 21 C7.01 21 6.02 21 5 21 C5 19.68 5 18.36 5 17 C4.34 17 3.68 17 3 17 C3 16.01 3 15.02 3 14 C2.01 14 1.02 14 0 14 C0 9.38 0 4.76 0 0 Z " fill="#F1F1F1" transform="translate(290,206)"/>
<path d="M0 0 C1.98 0 3.96 0 6 0 C6 5.61 6 11.22 6 17 C8.97 17 11.94 17 15 17 C15 11.39 15 5.78 15 0 C16.98 0 18.96 0 21 0 C21 7.59 21 15.18 21 23 C19.02 23 17.04 23 15 23 C15 22.01 15 21.02 15 20 C14.01 20 13.02 20 12 20 C12 20.99 12 21.98 12 23 C9.03 23 6.06 23 3 23 C3 22.01 3 21.02 3 20 C2.01 20 1.02 20 0 20 C0 13.4 0 6.8 0 0 Z " fill="#F1F1F1" transform="translate(342,212)"/>
<path d="M0 0 C1.65 0 3.3 0 5 0 C5 3.96 5 7.92 5 12 C5.99 12 6.98 12 8 12 C8 12.66 8 13.32 8 14 C8.99 14 9.98 14 11 14 C11 9.38 11 4.76 11 0 C12.98 0 14.96 0 17 0 C17 5.61 17 11.22 17 17 C16.01 17 15.02 17 14 17 C14 17.99 14 18.98 14 20 C13.01 20 12.02 20 11 20 C11 20.99 11 21.98 11 23 C10.01 23 9.02 23 8 23 C8 23.99 8 24.98 8 26 C7.01 26 6.02 26 5 26 C5 26.99 5 27.98 5 29 C3.35 29 1.7 29 0 29 C0 27.02 0 25.04 0 23 C0.66 23 1.32 23 2 23 C2 22.01 2 21.02 2 20 C2.99 20 3.98 20 5 20 C5 19.34 5 18.68 5 18 C4.01 17.67 3.02 17.34 2 17 C2 16.34 2 15.68 2 15 C1.34 15 0.68 15 0 15 C0 10.05 0 5.1 0 0 Z " fill="#F6F6F6" transform="translate(461,251)"/>
<path d="M0 0 C1.98 0 3.96 0 6 0 C6 7.92 6 15.84 6 24 C8.97 24 11.94 24 15 24 C15 25.98 15 27.96 15 30 C10.05 30 5.1 30 0 30 C0 20.1 0 10.2 0 0 Z " fill="#02E1E9" transform="translate(41,18)"/>
<path d="M0 0 C0.99 0 1.98 0 3 0 C3 2.97 3 5.94 3 9 C4.65 9 6.3 9 8 9 C8 10.65 8 12.3 8 14 C6.35 14 4.7 14 3 14 C3 16.97 3 19.94 3 23 C4.98 23 6.96 23 9 23 C9 24.98 9 26.96 9 29 C6.03 29 3.06 29 0 29 C0 28.01 0 27.02 0 26 C-0.99 26 -1.98 26 -3 26 C-3 22.04 -3 18.08 -3 14 C-3.99 14 -4.98 14 -6 14 C-6 12.35 -6 10.7 -6 9 C-5.01 9 -4.02 9 -3 9 C-3 7.02 -3 5.04 -3 3 C-2.01 3 -1.02 3 0 3 C0 2.01 0 1.02 0 0 Z " fill="#F7F7F7" transform="translate(637,206)"/>
<path d="M0 0 C0.99 0 1.98 0 3 0 C3 2.97 3 5.94 3 9 C4.65 9 6.3 9 8 9 C8 10.65 8 12.3 8 14 C6.35 14 4.7 14 3 14 C3 16.97 3 19.94 3 23 C4.98 23 6.96 23 9 23 C9 24.98 9 26.96 9 29 C6.03 29 3.06 29 0 29 C0 28.01 0 27.02 0 26 C-0.99 26 -1.98 26 -3 26 C-3 22.04 -3 18.08 -3 14 C-3.99 14 -4.98 14 -6 14 C-6 12.35 -6 10.7 -6 9 C-5.01 9 -4.02 9 -3 9 C-3 7.02 -3 5.04 -3 3 C-2.01 3 -1.02 3 0 3 C0 2.01 0 1.02 0 0 Z " fill="#F7F7F7" transform="translate(443,206)"/>
<path d="M0 0 C0.99 0 1.98 0 3 0 C3 2.97 3 5.94 3 9 C4.98 9 6.96 9 9 9 C9 10.65 9 12.3 9 14 C7.02 14 5.04 14 3 14 C3 16.97 3 19.94 3 23 C4.98 23 6.96 23 9 23 C9 24.98 9 26.96 9 29 C6.03 29 3.06 29 0 29 C0 28.01 0 27.02 0 26 C-0.99 26 -1.98 26 -3 26 C-3 22.37 -3 18.74 -3 15 C-3.66 15 -4.32 15 -5 15 C-5 13.02 -5 11.04 -5 9 C-4.01 9 -3.02 9 -2 9 C-2 7.02 -2 5.04 -2 3 C-1.34 3 -0.68 3 0 3 C0 2.01 0 1.02 0 0 Z " fill="#F5F5F5" transform="translate(530,206)"/>
<path d="M0 0 C1.98 0 3.96 0 6 0 C6 7.59 6 15.18 6 23 C8.64 23 11.28 23 14 23 C14 24.98 14 26.96 14 29 C9.38 29 4.76 29 0 29 C0 19.43 0 9.86 0 0 Z " fill="#F4F4F4" transform="translate(338,245)"/>
<path d="M0 0 C1.98 0 3.96 0 6 0 C6 0.99 6 1.98 6 3 C6.99 3 7.98 3 9 3 C9 2.01 9 1.02 9 0 C10.98 0 12.96 0 15 0 C15 0.99 15 1.98 15 3 C15.99 3 16.98 3 18 3 C18 3.99 18 4.98 18 6 C17.01 6 16.02 6 15 6 C15 6.99 15 7.98 15 9 C14.01 9 13.02 9 12 9 C12 8.01 12 7.02 12 6 C11.01 6 10.02 6 9 6 C9 6.99 9 7.98 9 9 C8.01 9 7.02 9 6 9 C6 13.62 6 18.24 6 23 C4.02 23 2.04 23 0 23 C0 15.41 0 7.82 0 0 Z " fill="#F1F1F1" transform="translate(392,251)"/>
<path d="M0 0 C1.98 0 3.96 0 6 0 C6 0.99 6 1.98 6 3 C6.66 3 7.32 3 8 3 C8 2.01 8 1.02 8 0 C9.98 0 11.96 0 14 0 C14 0.99 14 1.98 14 3 C14.99 3 15.98 3 17 3 C17 3.99 17 4.98 17 6 C16.01 6 15.02 6 14 6 C14 6.99 14 7.98 14 9 C13.01 9 12.02 9 11 9 C11 8.01 11 7.02 11 6 C10.01 6 9.02 6 8 6 C8 6.99 8 7.98 8 9 C7.34 9 6.68 9 6 9 C6 13.62 6 18.24 6 23 C4.02 23 2.04 23 0 23 C0 15.41 0 7.82 0 0 Z " fill="#F1F1F1" transform="translate(439,251)"/>
<path d="M0 0 C1.98 0 3.96 0 6 0 C6 0.99 6 1.98 6 3 C6.99 3 7.98 3 9 3 C9 2.01 9 1.02 9 0 C10.65 0 12.3 0 14 0 C14 0.99 14 1.98 14 3 C14.99 3 15.98 3 17 3 C17 3.66 17 4.32 17 5 C16.01 5 15.02 5 14 5 C14 5.99 14 6.98 14 8 C13.01 8 12.02 8 11 8 C11 7.34 11 6.68 11 6 C10.34 6 9.68 6 9 6 C9 6.99 9 7.98 9 9 C8.01 9 7.02 9 6 9 C6 13.62 6 18.24 6 23 C4.02 23 2.04 23 0 23 C0 15.41 0 7.82 0 0 Z " fill="#F4F4F4" transform="translate(367,212)"/>
<path d="M0 0 C1.98 0 3.96 0 6 0 C6 9.57 6 19.14 6 29 C4.02 29 2.04 29 0 29 C0 19.43 0 9.86 0 0 Z " fill="#F1F1F1" transform="translate(427,206)"/>
<path d="M0 0 C4.25067397 0.22771468 8.49211025 0.68854923 12.5 2.1875 C13.49 3.6725 13.49 3.6725 14.5 5.1875 C13.18 5.5175 11.86 5.8475 10.5 6.1875 C10.17 8.1675 9.84 10.1475 9.5 12.1875 C8.88125 12.001875 8.2625 11.81625 7.625 11.625 C5.45839822 10.95063824 5.45839822 10.95063824 3.5 12.1875 C0.4375 12.3125 0.4375 12.3125 -2.5 12.1875 C-3.5 11.1875 -3.5 11.1875 -3.6328125 8.9375 C-3.63023437 8.03 -3.62765625 7.1225 -3.625 6.1875 C-3.62757813 5.28 -3.63015625 4.3725 -3.6328125 3.4375 C-3.44458967 0.24878375 -3.19895798 0.23992185 0 0 Z " fill="#747474" transform="translate(745.5,26.8125)"/>
<path d="M0 0 C1.65 0 3.3 0 5 0 C5 9.57 5 19.14 5 29 C3.35 29 1.7 29 0 29 C0 19.43 0 9.86 0 0 Z " fill="#FDFDFD" transform="translate(315,245)"/>
<path d="M0 0 C0.33 0.99 0.66 1.98 1 3 C2.04800781 2.87431641 2.04800781 2.87431641 3.1171875 2.74609375 C4.02726563 2.64425781 4.93734375 2.54242188 5.875 2.4375 C6.77992188 2.33308594 7.68484375 2.22867187 8.6171875 2.12109375 C11 2 11 2 13 3 C13.125 6.375 13.125 6.375 13 10 C12.34 10.66 11.68 11.32 11 12 C8.99650739 11.68834559 6.99673484 11.35236497 5 11 C2.23135047 11.36858988 2.23135047 11.36858988 0 12 C-0.39063507 10.56666979 -0.76198474 9.12807321 -1.125 7.6875 C-1.33382812 6.88699219 -1.54265625 6.08648437 -1.7578125 5.26171875 C-2 3 -2 3 0 0 Z " fill="#5D5D5D" transform="translate(573,414)"/>
<path d="M0 0 C0.99 0 1.98 0 3 0 C3 0.99 3 1.98 3 3 C3.99 3 4.98 3 6 3 C6 6.96 6 10.92 6 15 C5.01 15 4.02 15 3 15 C3 15.99 3 16.98 3 18 C2.01 18 1.02 18 0 18 C0 17.01 0 16.02 0 15 C-0.99 15 -1.98 15 -3 15 C-3 11.04 -3 7.08 -3 3 C-2.01 3 -1.02 3 0 3 C0 2.01 0 1.02 0 0 Z " fill="#1B2D2E" transform="translate(69,24)"/>
<path d="M0 0 C1.98 0 3.96 0 6 0 C6 6.6 6 13.2 6 20 C4.02 20 2.04 20 0 20 C0 13.4 0 6.8 0 0 Z " fill="#F6F6F6" transform="translate(357,254)"/>
<path d="M0 0 C1.98 0 3.96 0 6 0 C6 6.6 6 13.2 6 20 C4.02 20 2.04 20 0 20 C0 13.4 0 6.8 0 0 Z " fill="#F5F5F5" transform="translate(456,215)"/>
<path d="M0 0 C2.97 0 5.94 0 9 0 C9 3.96 9 7.92 9 12 C6.03 12 3.06 12 0 12 C0 8.04 0 4.08 0 0 Z " fill="#434343" transform="translate(373,257)"/>
<path d="M0 0 C2.97 0 5.94 0 9 0 C9 3.96 9 7.92 9 12 C6.03 12 3.06 12 0 12 C0 8.04 0 4.08 0 0 Z " fill="#434343" transform="translate(612,217)"/>
<path d="M0 0 C2.97 0 5.94 0 9 0 C9 3.96 9 7.92 9 12 C6.03 12 3.06 12 0 12 C0 8.04 0 4.08 0 0 Z " fill="#434343" transform="translate(323,217)"/>
<path d="M0 0 C0.66 0 1.32 0 2 0 C2 0.66 2 1.32 2 2 C2.99 2 3.98 2 5 2 C5 5.96 5 9.92 5 14 C4.01 14 3.02 14 2 14 C2 14.99 2 15.98 2 17 C1.34 17 0.68 17 0 17 C0 16.01 0 15.02 0 14 C-0.99 14 -1.98 14 -3 14 C-3 10.04 -3 6.08 -3 2 C-2.01 2 -1.02 2 0 2 C0 1.34 0 0.68 0 0 Z " fill="#1D2223" transform="translate(119,25)"/>
<path d="M0 0 C2.64 0 5.28 0 8 0 C8 3.63 8 7.26 8 11 C5.29120665 12.35439668 2.99066732 12.06501451 0 12 C-0.33 11.34 -0.66 10.68 -1 10 C0.98 10 2.96 10 5 10 C3.02 9.34 1.04 8.68 -1 8 C-1.125 2.25 -1.125 2.25 0 0 Z " fill="#ABABAB" transform="translate(884,29)"/>
<path d="M0 0 C2.64 0 5.28 0 8 0 C8 3.63 8 7.26 8 11 C5.36 11 2.72 11 0 11 C0 7.37 0 3.74 0 0 Z " fill="#333333" transform="translate(656,218)"/>
<path d="M0 0 C3.5 0.125 3.5 0.125 4.5 1.125 C4.6875 4.5625 4.6875 4.5625 4.5 8.125 C2.5 10.125 2.5 10.125 -0.625 10.25 C-2.048125 10.188125 -2.048125 10.188125 -3.5 10.125 C-4.99106457 7.14287087 -4.61941467 4.40890342 -4.5 1.125 C-3.5 0.125 -3.5 0.125 0 0 Z " fill="#747474" transform="translate(421.5,415.875)"/>
<path d="M0 0 C2.33294775 -0.04241723 4.66702567 -0.04092937 7 0 C8 1 8 1 8.125 4.4375 C8 8 8 8 7 10 C5.35 10 3.7 10 2 10 C2 10.66 2 11.32 2 12 C1.34 12 0.68 12 0 12 C0 8.04 0 4.08 0 0 Z " fill="#434343" transform="translate(403,416)"/>
<path d="M0 0 C2.31 0 4.62 0 7 0 C7 0.99 7 1.98 7 3 C5.68 3 4.36 3 3 3 C3 3.66 3 4.32 3 5 C3.99 5 4.98 5 6 5 C6 5.99 6 6.98 6 8 C5.01 8 4.02 8 3 8 C3 8.66 3 9.32 3 10 C4.65 10 6.3 10 8 10 C8 10.99 8 11.98 8 13 C5.36 13 2.72 13 0 13 C0 8.71 0 4.42 0 0 Z " fill="#515151" transform="translate(383,413)"/>
<path d="M0 0 C1.98 0 3.96 0 6 0 C7.49106457 2.98212913 7.11941467 5.71609658 7 9 C6 10 6 10 3 10.125 C0 10 0 10 -1 9 C-1.23728814 2.47457627 -1.23728814 2.47457627 0 0 Z " fill="#D2D2D2" transform="translate(874,29)"/>
<path d="M0 0 C2.9375 0.1875 2.9375 0.1875 3.9375 1.1875 C3.97813832 2.85367115 3.980221 4.52138095 3.9375 6.1875 C1.9575 6.1875 -0.0225 6.1875 -2.0625 6.1875 C-2.0625 6.8475 -2.0625 7.5075 -2.0625 8.1875 C-0.0825 8.1875 1.8975 8.1875 3.9375 8.1875 C3.6075 8.8475 3.2775 9.5075 2.9375 10.1875 C-2.8125 10.3125 -2.8125 10.3125 -5.0625 9.1875 C-5.1875 5.8125 -5.1875 5.8125 -5.0625 2.1875 C-3.0625 0.1875 -3.0625 0.1875 0 0 Z " fill="#D4D4D4" transform="translate(766.0625,28.8125)"/>
<path d="M0 0 C3 0.125 3 0.125 4 1.125 C4.1328125 2.9375 4.1328125 2.9375 4.125 5.125 C4.12757813 5.846875 4.13015625 6.56875 4.1328125 7.3125 C4 9.125 4 9.125 3 10.125 C1.00041636 10.16580783 -1.00045254 10.16754356 -3 10.125 C-4.49106457 7.14287087 -4.11941467 4.40890342 -4 1.125 C-3 0.125 -3 0.125 0 0 Z " fill="#4A4A4A" transform="translate(499,415.875)"/>
<path d="M0 0 C3 0.125 3 0.125 4 1.125 C4.23728814 7.65042373 4.23728814 7.65042373 3 10.125 C1.00045254 10.16754356 -1.00041636 10.16580783 -3 10.125 C-4 9.125 -4 9.125 -4.1328125 7.3125 C-4.13023437 6.590625 -4.12765625 5.86875 -4.125 5.125 C-4.12757813 4.403125 -4.13015625 3.68125 -4.1328125 2.9375 C-3.90343964 -0.1927649 -3.18691942 0.13278831 0 0 Z " fill="#464646" transform="translate(530,415.875)"/>
<path d="M0 0 C3 0.125 3 0.125 4 1.125 C4.23728814 7.65042373 4.23728814 7.65042373 3 10.125 C1.02 10.125 -0.96 10.125 -3 10.125 C-4.49106457 7.14287087 -4.11941467 4.40890342 -4 1.125 C-3 0.125 -3 0.125 0 0 Z " fill="#444444" transform="translate(554,415.875)"/>
<path d="M0 0 C3 0.125 3 0.125 4 1.125 C4.23728814 7.65042373 4.23728814 7.65042373 3 10.125 C1.02 10.125 -0.96 10.125 -3 10.125 C-4.49106457 7.14287087 -4.11941467 4.40890342 -4 1.125 C-3 0.125 -3 0.125 0 0 Z " fill="#454545" transform="translate(515,415.875)"/>
<path d="M0 0 C3 0.125 3 0.125 4 1.125 C4.23728814 7.65042373 4.23728814 7.65042373 3 10.125 C1.02 10.125 -0.96 10.125 -3 10.125 C-4.49106457 7.14287087 -4.11941467 4.40890342 -4 1.125 C-3 0.125 -3 0.125 0 0 Z " fill="#454545" transform="translate(441,415.875)"/>
<path d="M0 0 C1.98 0 3.96 0 6 0 C7.60725635 3.21451269 7.05748185 6.43612536 7 10 C4.69 10 2.38 10 0 10 C-0.95024979 6.30458414 -0.95024979 3.69541586 0 0 Z " fill="#D8D8D8" transform="translate(773,29)"/>
<path d="M0 0 C6.75 -0.125 6.75 -0.125 9 1 C9 3.97 9 6.94 9 10 C8.01 10 7.02 10 6 10 C6 7.69 6 5.38 6 3 C5.01 3 4.02 3 3 3 C3 5.31 3 7.62 3 10 C2.01 10 1.02 10 0 10 C0 6.7 0 3.4 0 0 Z " fill="#555555" transform="translate(560,416)"/>
<path d="M0 0 C0.33 0.99 0.66 1.98 1 3 C1.66 3.165 2.32 3.33 3 3.5 C3.66 3.665 4.32 3.83 5 4 C5.33 4.99 5.66 5.98 6 7 C8.00016466 8.20882096 8.00016466 8.20882096 10 9 C8.35 9 6.7 9 5 9 C4.67 9.99 4.34 10.98 4 12 C2.68 12 1.36 12 0 12 C-0.39063507 10.56666979 -0.76198474 9.12807321 -1.125 7.6875 C-1.33382812 6.88699219 -1.54265625 6.08648437 -1.7578125 5.26171875 C-2 3 -2 3 0 0 Z " fill="#BCBCBC" transform="translate(573,414)"/>
<path d="M0 0 C0.7425 0.185625 1.485 0.37125 2.25 0.5625 C4.94990963 0.99203108 6.44631077 0.85122974 9 0 C8.67 0.99 8.34 1.98 8 3 C7.34 3 6.68 3 6 3 C6.495 3.4125 6.99 3.825 7.5 4.25 C9 6 9 6 9 10 C8.01 10 7.02 10 6 10 C5.34 9.01 4.68 8.02 4 7 C3.67 7.99 3.34 8.98 3 10 C2.01 10 1.02 10 0 10 C0 6.7 0 3.4 0 0 Z " fill="#525252" transform="translate(392,416)"/>
<path d="M0 0 C1.98 0 3.96 0 6 0 C6.33 1.98 6.66 3.96 7 6 C5.02 6 3.04 6 1 6 C1 6.66 1 7.32 1 8 C2.98 8 4.96 8 7 8 C6.67 8.66 6.34 9.32 6 10 C4.00045254 10.04254356 1.99958364 10.04080783 0 10 C-1 9 -1 9 -1.125 5.5625 C-1 2 -1 2 0 0 Z " fill="#CCCCCC" transform="translate(791,29)"/>
<path d="M0 0 C1.99954746 -0.04254356 4.00041636 -0.04080783 6 0 C7 1 7 1 7.09765625 3.06640625 C7.08605469 3.89011719 7.07445312 4.71382813 7.0625 5.5625 C7.05347656 6.38878906 7.04445313 7.21507812 7.03515625 8.06640625 C7.02355469 8.70449219 7.01195312 9.34257812 7 10 C6.34 10 5.68 10 5 10 C5 8.68 5 7.36 5 6 C4.34 7.32 3.68 8.64 3 10 C1.68 9.67 0.36 9.34 -1 9 C-1.33 7.68 -1.66 6.36 -2 5 C1.465 4.505 1.465 4.505 5 4 C5 3.34 5 2.68 5 2 C3.02 2 1.04 2 -1 2 C-0.67 1.34 -0.34 0.68 0 0 Z " fill="#434343" transform="translate(454,416)"/>
<path d="M0 0 C1.4540625 0.0309375 1.4540625 0.0309375 2.9375 0.0625 C3.2675 1.0525 3.5975 2.0425 3.9375 3.0625 C2.2875 3.3925 0.6375 3.7225 -1.0625 4.0625 C-0.71805119 6.53516765 -0.71805119 6.53516765 -0.0625 9.0625 C0.5975 9.3925 1.2575 9.7225 1.9375 10.0625 C1.9375 9.4025 1.9375 8.7425 1.9375 8.0625 C2.5975 8.0625 3.2575 8.0625 3.9375 8.0625 C3.6075 9.3825 3.2775 10.7025 2.9375 12.0625 C0.93795254 12.10504356 -1.06291636 12.10330783 -3.0625 12.0625 C-4.0625 11.0625 -4.0625 11.0625 -4.1953125 8.8125 C-4.19273437 7.905 -4.19015625 6.9975 -4.1875 6.0625 C-4.19007813 5.155 -4.19265625 4.2475 -4.1953125 3.3125 C-3.98863009 -0.18894319 -3.58596978 0.07318306 0 0 Z " fill="#D2D2D2" transform="translate(746.0625,26.9375)"/>
<path d="M0 0 C2.33294775 -0.04241723 4.66702567 -0.04092937 7 0 C8 1 8 1 8.09765625 3.06640625 C8.08605469 3.89011719 8.07445312 4.71382813 8.0625 5.5625 C8.05347656 6.38878906 8.04445313 7.21507812 8.03515625 8.06640625 C8.02355469 8.70449219 8.01195312 9.34257812 8 10 C7.01 10 6.02 10 5 10 C5 7.69 5 5.38 5 3 C4.34 3 3.68 3 3 3 C3 5.31 3 7.62 3 10 C2.34 10 1.68 10 1 10 C0.67 6.7 0.34 3.4 0 0 Z " fill="#4E4E4E" transform="translate(540,416)"/>
<path d="M0 0 C0.66 0 1.32 0 2 0 C2 1.32 2 2.64 2 4 C2.66 4 3.32 4 4 4 C4 4.99 4 5.98 4 7 C3.34 7 2.68 7 2 7 C2 7.99 2 8.98 2 10 C2.66 10 3.32 10 4 10 C4 10.99 4 11.98 4 13 C2.68 13 1.36 13 0 13 C-0.39222105 11.58800422 -0.76311059 10.17007236 -1.125 8.75 C-1.33382813 7.96109375 -1.54265625 7.1721875 -1.7578125 6.359375 C-2.04314411 3.5796929 -1.44977894 2.34112451 0 0 Z " fill="#4A4A4A" transform="translate(479,413)"/>
<path d="M0 0 C0.66 0 1.32 0 2 0 C2.33 0.66 2.66 1.32 3 2 C5.52733235 2.65555119 5.52733235 2.65555119 8 3 C8 5.97 8 8.94 8 12 C7.34 12 6.68 12 6 12 C6 9.36 6 6.72 6 4 C4.68 4 3.36 4 2 4 C2 6.64 2 9.28 2 12 C1.34 12 0.68 12 0 12 C0 8.04 0 4.08 0 0 Z " fill="#3A3A3A" transform="translate(485,414)"/>
<path d="M0 0 C2.31 0 4.62 0 7 0 C8.60725635 3.21451269 8.05748185 6.43612536 8 10 C7.34 10 6.68 10 6 10 C6 7.69 6 5.38 6 3 C4.68 3 3.36 3 2 3 C2 5.31 2 7.62 2 10 C1.34 10 0.68 10 0 10 C0 6.7 0 3.4 0 0 Z " fill="#CACACA" transform="translate(898,29)"/>
<path d="M0 0 C0.66 0 1.32 0 2 0 C2 0.99 2 1.98 2 3 C2.66 3 3.32 3 4 3 C4 3.99 4 4.98 4 6 C3.34 6 2.68 6 2 6 C2 6.99 2 7.98 2 9 C2.66 9 3.32 9 4 9 C4 9.99 4 10.98 4 12 C2.35 11.67 0.7 11.34 -1 11 C-2.23076923 4.6 -2.23076923 4.6 -1.0625 1.5625 C-0.711875 1.046875 -0.36125 0.53125 0 0 Z " fill="#C4C4C4" transform="translate(784,27)"/>
<path d="M0 0 C2.875 -0.1875 2.875 -0.1875 6 0 C6.66 0.99 7.32 1.98 8 3 C6.68 3.33 5.36 3.66 4 4 C3.67 5.98 3.34 7.96 3 10 C2.01 10 1.02 10 0 10 C0 6.7 0 3.4 0 0 Z " fill="#C3C3C3" transform="translate(752,29)"/>
<path d="M0 0 C2.31 0 4.62 0 7 0 C7 0.99 7 1.98 7 3 C5.68 3 4.36 3 3 3 C3 5.31 3 7.62 3 10 C2.01 10 1.02 10 0 10 C0 6.7 0 3.4 0 0 Z " fill="#525252" transform="translate(427,416)"/>
<path d="M0 0 C0.99 0 1.98 0 3 0 C3 4.29 3 8.58 3 13 C2.01 13 1.02 13 0 13 C0 8.71 0 4.42 0 0 Z " fill="#5E5E5E" transform="translate(521,413)"/>
<path d="M0 0 C0.99 0 1.98 0 3 0 C3 4.29 3 8.58 3 13 C2.01 13 1.02 13 0 13 C0 8.71 0 4.42 0 0 Z " fill="#5E5E5E" transform="translate(467,413)"/>
<path d="M0 0 C1.65 0 3.3 0 5 0 C5.02688151 1.64574566 5.04634123 3.29161413 5.0625 4.9375 C5.07410156 5.85402344 5.08570313 6.77054688 5.09765625 7.71484375 C5 10 5 10 4 11 C2.00041636 11.04080783 -0.00045254 11.04254356 -2 11 C-2.33 10.34 -2.66 9.68 -3 9 C-1.02 9 0.96 9 3 9 C2.01 7.68 1.02 6.36 0 5 C0.99 5 1.98 5 3 5 C3 3.68 3 2.36 3 1 C2.01 0.67 1.02 0.34 0 0 Z " fill="#CFCFCF" transform="translate(886,30)"/>
<path d="M0 0 C1.98 0 3.96 0 6 0 C6 1.98 6 3.96 6 6 C4.02 6 2.04 6 0 6 C0 4.02 0 2.04 0 0 Z " fill="#EEEEEE" transform="translate(357,245)"/>
<path d="M0 0 C2.97 0 5.94 0 9 0 C9 1.32 9 2.64 9 4 C6.03 4 3.06 4 0 4 C0 2.68 0 1.36 0 0 Z " fill="#727272" transform="translate(549,217)"/>
<path d="M0 0 C1.98 0 3.96 0 6 0 C6 1.98 6 3.96 6 6 C4.02 6 2.04 6 0 6 C0 4.02 0 2.04 0 0 Z " fill="#EEEEEE" transform="translate(456,206)"/>
<path d="M0 0 C0.99 0 1.98 0 3 0 C3 3.96 3 7.92 3 12 C2.01 12 1.02 12 0 12 C0 8.04 0 4.08 0 0 Z " fill="#B7B7B7" transform="translate(893,27)"/>
<path d="M0 0 C0.66 0 1.32 0 2 0 C2 3.3 2 6.6 2 10 C3.32 10 4.64 10 6 10 C6 10.66 6 11.32 6 12 C4.02 12 2.04 12 0 12 C0 8.04 0 4.08 0 0 Z " fill="#D8D8D8" transform="translate(865,27)"/>
<path d="M0 0 C0.33 0.99 0.66 1.98 1 3 C1.66 3 2.32 3 3 3 C3 3.66 3 4.32 3 5 C2.34 5 1.68 5 1 5 C1 6.32 1 7.64 1 9 C1.66 9 2.32 9 3 9 C3 9.66 3 10.32 3 11 C1.68 10.67 0.36 10.34 -1 10 C-2.25 3.375 -2.25 3.375 0 0 Z " fill="#363636" transform="translate(573,414)"/>
<path d="M0 0 C0.66 0 1.32 0 2 0 C2 2.64 2 5.28 2 8 C3.32 8.33 4.64 8.66 6 9 C4.68 9 3.36 9 2 9 C2 9.99 2 10.98 2 12 C1.34 12 0.68 12 0 12 C0 8.04 0 4.08 0 0 Z " fill="#333333" transform="translate(403,416)"/>
<path d="M0 0 C1.99954746 -0.04254356 4.00041636 -0.04080783 6 0 C7 1 7 1 7.0625 4.5625 C7.041875 5.696875 7.02125 6.83125 7 8 C6.01 8.495 6.01 8.495 5 9 C4.67 7.02 4.34 5.04 4 3 C2.68 2.67 1.36 2.34 0 2 C0 1.34 0 0.68 0 0 Z " fill="#494949" transform="translate(419,416)"/>
<path d="M0 0 C0.94875 0.04125 1.8975 0.0825 2.875 0.125 C3.205 0.785 3.535 1.445 3.875 2.125 C2.885 2.125 1.895 2.125 0.875 2.125 C0.875 2.785 0.875 3.445 0.875 4.125 C-0.445 4.125 -1.765 4.125 -3.125 4.125 C-3.455 5.775 -3.785 7.425 -4.125 9.125 C-4.455 9.125 -4.785 9.125 -5.125 9.125 C-5.25 5.75 -5.25 5.75 -5.125 2.125 C-3.125 0.125 -3.125 0.125 0 0 Z " fill="#ACACAC" transform="translate(766.125,28.875)"/>
<path d="M0 0 C0.66 0 1.32 0 2 0 C2 0.66 2 1.32 2 2 C2.99 2 3.98 2 5 2 C5 2.66 5 3.32 5 4 C4.01 4 3.02 4 2 4 C2 4.99 2 5.98 2 7 C1.34 7 0.68 7 0 7 C0 6.01 0 5.02 0 4 C-0.99 4 -1.98 4 -3 4 C-3 3.34 -3 2.68 -3 2 C-2.01 2 -1.02 2 0 2 C0 1.34 0 0.68 0 0 Z " fill="#CECECE" transform="translate(730,30)"/>
<path d="M0 0 C2.64 0 5.28 0 8 0 C8 0.99 8 1.98 8 3 C5.36 3 2.72 3 0 3 C0 2.01 0 1.02 0 0 Z " fill="#3B3B3B" transform="translate(506,226)"/>
<path d="M0 0 C1.2065625 0.0309375 1.2065625 0.0309375 2.4375 0.0625 C2.7675 0.7225 3.0975 1.3825 3.4375 2.0625 C2.1175 2.0625 0.7975 2.0625 -0.5625 2.0625 C-1.2225 3.3825 -1.8825 4.7025 -2.5625 6.0625 C-2.94468767 4.40635343 -3.27645102 2.73792976 -3.5625 1.0625 C-2.5625 0.0625 -2.5625 0.0625 0 0 Z " fill="#4C4C4C" transform="translate(581.5625,415.9375)"/>
<path d="M0 0 C0.66 0 1.32 0 2 0 C2 1.32 2 2.64 2 4 C2.66 4 3.32 4 4 4 C4 4.99 4 5.98 4 7 C3.34 7 2.68 7 2 7 C1.67 7.99 1.34 8.98 1 10 C-0.83691257 6.21812119 -1.15837626 4.05431692 0 0 Z " fill="#646464" transform="translate(479,413)"/>
<path d="M0 0 C0.99 0.33 1.98 0.66 3 1 C2.67 3.97 2.34 6.94 2 10 C1.34 10 0.68 10 0 10 C0 6.7 0 3.4 0 0 Z " fill="#393939" transform="translate(536,416)"/>
<path d="M0 0 C1.32 0 2.64 0 4 0 C4 1.65 4 3.3 4 5 C2.68 5 1.36 5 0 5 C0 3.35 0 1.7 0 0 Z " fill="#BEBEBE" transform="translate(405,418)"/>
<path d="M0 0 C1.65 0 3.3 0 5 0 C5 0.99 5 1.98 5 3 C3.35 3.33 1.7 3.66 0 4 C0 2.68 0 1.36 0 0 Z " fill="#BFBFBF" transform="translate(773,35)"/>
<path d="M0 0 C1.32 0 2.64 0 4 0 C4 1.65 4 3.3 4 5 C2.68 5 1.36 5 0 5 C0 3.35 0 1.7 0 0 Z " fill="#787878" transform="translate(875,32)"/>
<path d="M0 0 C1.32 0.33 2.64 0.66 4 1 C4 3.64 4 6.28 4 9 C3.34 9 2.68 9 2 9 C1.855625 7.88625 1.71125 6.7725 1.5625 5.625 C1.21627965 2.17857953 1.21627965 2.17857953 0 0 Z " fill="#D8D8D8" transform="translate(902,30)"/>
<path d="M0 0 C2.31 0.66 4.62 1.32 7 2 C7 2.33 7 2.66 7 3 C6.21625 3.0825 5.4325 3.165 4.625 3.25 C1.85250896 3.72806339 1.85250896 3.72806339 0.6875 6.0625 C0.460625 6.701875 0.23375 7.34125 0 8 C-1.125 2.25 -1.125 2.25 0 0 Z " fill="#727272" transform="translate(771,30)"/>
<path d="M0 0 C1.98 0 3.96 0 6 0 C5.67 0.99 5.34 1.98 5 3 C3.02 3 1.04 3 -1 3 C-0.67 2.01 -0.34 1.02 0 0 Z " fill="#C4C4C4" transform="translate(773,29)"/>
</svg>
